<svg xmlns="http://www.w3.org/2000/svg" width="805" height="600"><rect width="805" height="600" x="0" y="0" fill="#FFFFFF" id="background"/><g transform="translate(90,100)" id="viz"><g fill="none" font-size="10" font-family="sans-serif" text-anchor="middle"><path class="domain" stroke="currentColor" d="M0,0H665"/><g class="tick" opacity="1" transform="translate(42.45631720430109,0)"><line stroke="currentColor" y2="-6"/><text fill="currentColor" y="-9" dy="3.4641016151377544" dx="3.4641016151377544" text-anchor="start" transform="rotate(-45)">Magic Kingdom Park</text></g><g class="tick" opacity="1" transform="translate(125.32594086021506,0)"><line stroke="currentColor" y2="-6"/><text fill="currentColor" y="-9" dy="3.4641016151377544" dx="3.4641016151377544" text-anchor="start" transform="rotate(-45)">EPCOT</text></g><g class="tick" opacity="1" transform="translate(208.19556451612902,0)"><line stroke="currentColor" y2="-6"/><text fill="currentColor" y="-9" dy="3.4641016151377544" dx="3.4641016151377544" text-anchor="start" transform="rotate(-45)">Disney's Animal Kingdom</text></g><g class="tick" opacity="1" transform="translate(291.065188172043,0)"><line stroke="currentColor" y2="-6"/><text fill="currentColor" y="-9" dy="3.4641016151377544" dx="3.4641016151377544" text-anchor="start" transform="rotate(-45)">Disney's Hollywood Studios</text></g><g class="tick" opacity="1" transform="translate(373.934811827957,0)"><line stroke="currentColor" y2="-6"/><text fill="currentColor" y="-9" dy="3.4641016151377544" dx="3.4641016151377544" text-anchor="start" transform="rotate(-45)">Disney Springs</text></g><g class="tick" opacity="1" transform="translate(456.804435483871,0)"><line stroke="currentColor" y2="-6"/><text fill="currentColor" y="-9" dy="3.4641016151377544" dx="3.4641016151377544" text-anchor="start" transform="rotate(-45)">Islands of Adventure</text></g><g class="tick" opacity="1" transform="translate(539.6740591397848,0)"><line stroke="currentColor" y2="-6"/><text fill="currentColor" y="-9" dy="3.4641016151377544" dx="3.4641016151377544" text-anchor="start" transform="rotate(-45)">CityWalk</text></g><g class="tick" opacity="1" transform="translate(622.5436827956989,0)"><line stroke="currentColor" y2="-6"/><text fill="currentColor" y="-9" dy="3.4641016151377544" dx="3.4641016151377544" text-anchor="start" transform="rotate(-45)">Universal Studios Florida</text></g></g><g fill="none" font-size="10" font-family="sans-serif" text-anchor="end"><path class="domain" stroke="currentColor" d="M0,0V249.375"/><g class="tick" opacity="1" transform="translate(0,42.24003438614365)"><line stroke="currentColor" x2="-6"/><text fill="currentColor" x="-9" dy="0.32em">Atracción</text></g><g class="tick" opacity="1" transform="translate(0,124.6875)"><line stroke="currentColor" x2="-6"/><text fill="currentColor" x="-9" dy="0.32em">Shopping</text></g><g class="tick" opacity="1" transform="translate(0,207.13496561385637)"><line stroke="currentColor" x2="-6"/><text fill="currentColor" x="-9" dy="0.32em">Comida</text></g></g><text dx="-9" dy="-9" style="text-anchor: end; font-family: Arial, sans-serif; font-size: 12px; fill: rgb(123, 123, 123); font-weight: bold;">Clasificación</text><text x="476.589970519733" y="476.589970519733" dx="3.4641016151377544" dy="-3.4641016151377544" transform="rotate(-45)" style="text-anchor: start; font-family: Arial, sans-serif; font-size: 12px; fill: rgb(123, 123, 123); font-weight: bold;">Parque</text><rect x="2.0430107526881898" y="2.032603158430959" rx="0" ry="0" width="81.125" height="81.125" style="fill: rgb(204, 204, 204);"/><rect x="25.041433032185044" y="107.47849105178416" rx="0" ry="0" width="35.12815544100629" height="35.12815544100629" style="fill: rgb(204, 204, 204);"/><rect x="32.46488575268819" y="197.34940938614366" rx="0" ry="0" width="20.28125" height="20.28125" style="fill: rgb(204, 204, 204);"/><rect x="91.84248614390444" y="8.96245489373323" rx="0" ry="0" width="67.26529652939546" height="67.26529652939546" style="fill: rgb(204, 204, 204);"/><rect x="115.33450940860216" y="197.34940938614366" rx="0" ry="0" width="20.28125" height="20.28125" style="fill: rgb(204, 204, 204);"/><rect x="115.33450940860216" y="114.90194377228731" rx="0" ry="0" width="20.28125" height="20.28125" style="fill: rgb(204, 204, 204);"/><rect x="177.92288306451613" y="12.173228158430959" rx="0" ry="0" width="60.84375" height="60.84375" style="fill: rgb(204, 204, 204);"/><rect x="198.20413306451613" y="197.34940938614366" rx="0" ry="0" width="20.28125" height="20.28125" style="fill: rgb(204, 204, 204);"/><rect x="262.53236290855074" y="13.913084346551624" rx="0" ry="0" width="57.36403762375867" height="57.36403762375867" style="fill: rgb(204, 204, 204);"/><rect x="281.0737567204301" y="197.34940938614366" rx="0" ry="0" width="20.28125" height="20.28125" style="fill: rgb(204, 204, 204);"/><rect x="281.0737567204301" y="114.90194377228731" rx="0" ry="0" width="20.28125" height="20.28125" style="fill: rgb(204, 204, 204);"/><rect x="338.95584993533777" y="89.91441333128103" rx="0" ry="0" width="70.25631088201258" height="70.25631088201258" style="fill: rgb(204, 204, 204);"/><rect x="363.94338037634407" y="197.34940938614366" rx="0" ry="0" width="20.28125" height="20.28125" style="fill: rgb(204, 204, 204);"/><rect x="426.53175403225805" y="12.173228158430959" rx="0" ry="0" width="60.84375" height="60.84375" style="fill: rgb(204, 204, 204);"/><rect x="446.81300403225805" y="197.34940938614366" rx="0" ry="0" width="20.28125" height="20.28125" style="fill: rgb(204, 204, 204);"/><rect x="525.4822432822323" y="193.149024980204" rx="0" ry="0" width="28.682018811879335" height="28.682018811879335" style="fill: rgb(204, 204, 204);"/><rect x="590.625404446441" y="10.527631260785988" rx="0" ry="0" width="64.13494379528994" height="64.13494379528994" style="fill: rgb(204, 204, 204);"/><rect x="608.3518669381464" y="193.149024980204" rx="0" ry="0" width="28.682018811879335" height="28.682018811879335" style="fill: rgb(204, 204, 204);"/><g id="labels"><g transform="translate(42.60551075268819,42.59510315843096)"><text x="0" y="0" text-anchor="middle" dominant-baseline="text-before-edge" transform="translate(0,0)"/></g><g transform="translate(42.60551075268819,125.04256877228731)"><text x="0" y="0" text-anchor="middle" dominant-baseline="text-before-edge" transform="translate(0,0)"/></g><g transform="translate(42.60551075268819,207.49003438614366)"><text x="0" y="0" text-anchor="middle" dominant-baseline="text-before-edge" transform="translate(0,0)"/></g><g transform="translate(125.47513440860216,42.59510315843096)"><text x="0" y="0" text-anchor="middle" dominant-baseline="text-before-edge" transform="translate(0,0)"/></g><g transform="translate(125.47513440860216,207.49003438614366)"><text x="0" y="0" text-anchor="middle" dominant-baseline="text-before-edge" transform="translate(0,0)"/></g><g transform="translate(125.47513440860216,125.04256877228731)"><text x="0" y="0" text-anchor="middle" dominant-baseline="text-before-edge" transform="translate(0,0)"/></g><g transform="translate(208.34475806451613,42.59510315843096)"><text x="0" y="0" text-anchor="middle" dominant-baseline="text-before-edge" transform="translate(0,0)"/></g><g transform="translate(208.34475806451613,207.49003438614366)"><text x="0" y="0" text-anchor="middle" dominant-baseline="text-before-edge" transform="translate(0,0)"/></g><g transform="translate(291.2143817204301,42.59510315843096)"><text x="0" y="0" text-anchor="middle" dominant-baseline="text-before-edge" transform="translate(0,0)"/></g><g transform="translate(291.2143817204301,207.49003438614366)"><text x="0" y="0" text-anchor="middle" dominant-baseline="text-before-edge" transform="translate(0,0)"/></g><g transform="translate(291.2143817204301,125.04256877228731)"><text x="0" y="0" text-anchor="middle" dominant-baseline="text-before-edge" transform="translate(0,0)"/></g><g transform="translate(374.08400537634407,125.04256877228731)"><text x="0" y="0" text-anchor="middle" dominant-baseline="text-before-edge" transform="translate(0,0)"/></g><g transform="translate(374.08400537634407,207.49003438614366)"><text x="0" y="0" text-anchor="middle" dominant-baseline="text-before-edge" transform="translate(0,0)"/></g><g transform="translate(456.95362903225805,42.59510315843096)"><text x="0" y="0" text-anchor="middle" dominant-baseline="text-before-edge" transform="translate(0,0)"/></g><g transform="translate(456.95362903225805,207.49003438614366)"><text x="0" y="0" text-anchor="middle" dominant-baseline="text-before-edge" transform="translate(0,0)"/></g><g transform="translate(539.823252688172,207.49003438614366)"><text x="0" y="0" text-anchor="middle" dominant-baseline="text-before-edge" transform="translate(0,0)"/></g><g transform="translate(622.692876344086,42.59510315843096)"><text x="0" y="0" text-anchor="middle" dominant-baseline="text-before-edge" transform="translate(0,0)"/></g><g transform="translate(622.692876344086,207.49003438614366)"><text x="0" y="0" text-anchor="middle" dominant-baseline="text-before-edge" transform="translate(0,0)"/></g></g></g></svg>